M48
;Layer_Color=9474304
;FILE_FORMAT=4:4
METRIC,LZ
;TYPE=PLATED
T1F00S00C0.3000
T2F00S00C0.8000
T3F00S00C1.0000
T4F00S00C1.2000
%
T01
X00856394Y00107107
X00838624Y00128203
X00864237Y0015338
X0085815Y00224055
X008659Y00256737
X00951171Y00114899
X0048429Y00109834
X00424715Y00217799
X00449725Y00267708
X00511307Y00284598
X00550015Y00218568
X00382978Y00231409
X00305305Y00284598
X00266022Y00247775
X00268518Y00154492
X00261403Y00138539
X00305305Y00070153
X00147426Y00194261
X00063917Y00508013
X00030152Y00589375
X00184071Y00683524
X00268327Y00650646
X00251974Y00630205
X00538323Y00625683
X00489356Y00557297
X00601804Y00535425
X0064639Y00580092
X00767781Y00593497
X00770498Y00656077
X00894605Y00526059
X00869277Y00344541
T02
X00431408Y00065383
X006876Y0015
X00713
X0036265
X0033725
X004132Y00083591
X0036275Y003
X0033735
X0033725Y0047
X0036265
X00687522Y00470077
X00712922
X00771Y004125
Y003871
X00713Y003
X006876
Y0065
X00713
X00856Y004125
Y003871
X0036265Y00695
X0033725
T03
X00447016Y00135535
X00502644Y00226795
X00650287Y00205122
Y00167122
X00649746Y00071876
X00325181Y00224941
X00098Y0026
X00243703Y00431374
X00320408Y00576184
X00402185Y00579009
X00431267Y00517146
X00455454Y00632783
X00454676Y00684042
X00638219Y00632952
X00627431Y00481873
X00626417Y00422952
X00966431Y00496098
X00737131Y00726879
X00663126Y0071104
T04
X00569224Y00208714
X00093121Y00082666
X00023121
X00609224Y00358714
M30
