G04*
G04 #@! TF.GenerationSoftware,Altium Limited,Altium Designer,22.6.1 (34)*
G04*
G04 Layer_Color=8388736*
%FSLAX44Y44*%
%MOMM*%
G71*
G04*
G04 #@! TF.SameCoordinates,B2E29BDE-533A-453F-A1E7-46E19EE0E789*
G04*
G04*
G04 #@! TF.FilePolarity,Negative*
G04*
G01*
G75*
%ADD22R,1.0532X1.5532*%
%ADD23R,2.7032X2.2032*%
%ADD24R,2.2032X2.7032*%
%ADD25R,1.5532X1.0532*%
%ADD26R,1.0032X3.0532*%
%ADD27R,1.0032X3.0532*%
%ADD28R,1.6032X1.1032*%
G04:AMPARAMS|DCode=29|XSize=3.2032mm|YSize=3.2032mm|CornerRadius=0.5516mm|HoleSize=0mm|Usage=FLASHONLY|Rotation=0.000|XOffset=0mm|YOffset=0mm|HoleType=Round|Shape=RoundedRectangle|*
%AMROUNDEDRECTD29*
21,1,3.2032,2.1000,0,0,0.0*
21,1,2.1000,3.2032,0,0,0.0*
1,1,1.1032,1.0500,-1.0500*
1,1,1.1032,-1.0500,-1.0500*
1,1,1.1032,-1.0500,1.0500*
1,1,1.1032,1.0500,1.0500*
%
%ADD29ROUNDEDRECTD29*%
G04:AMPARAMS|DCode=30|XSize=7.2032mm|YSize=3.2032mm|CornerRadius=0.5516mm|HoleSize=0mm|Usage=FLASHONLY|Rotation=0.000|XOffset=0mm|YOffset=0mm|HoleType=Round|Shape=RoundedRectangle|*
%AMROUNDEDRECTD30*
21,1,7.2032,2.1000,0,0,0.0*
21,1,6.1000,3.2032,0,0,0.0*
1,1,1.1032,3.0500,-1.0500*
1,1,1.1032,-3.0500,-1.0500*
1,1,1.1032,-3.0500,1.0500*
1,1,1.1032,3.0500,1.0500*
%
%ADD30ROUNDEDRECTD30*%
G04:AMPARAMS|DCode=31|XSize=3.2032mm|YSize=7.2032mm|CornerRadius=0.5516mm|HoleSize=0mm|Usage=FLASHONLY|Rotation=0.000|XOffset=0mm|YOffset=0mm|HoleType=Round|Shape=RoundedRectangle|*
%AMROUNDEDRECTD31*
21,1,3.2032,6.1000,0,0,0.0*
21,1,2.1000,7.2032,0,0,0.0*
1,1,1.1032,1.0500,-3.0500*
1,1,1.1032,-1.0500,-3.0500*
1,1,1.1032,-1.0500,3.0500*
1,1,1.1032,1.0500,3.0500*
%
%ADD31ROUNDEDRECTD31*%
%ADD32O,2.0032X0.8032*%
%ADD33R,3.0532X1.0032*%
%ADD34R,3.0532X1.0032*%
G04:AMPARAMS|DCode=35|XSize=0.9532mm|YSize=1.1032mm|CornerRadius=0mm|HoleSize=0mm|Usage=FLASHONLY|Rotation=225.000|XOffset=0mm|YOffset=0mm|HoleType=Round|Shape=Rectangle|*
%AMROTATEDRECTD35*
4,1,4,-0.0530,0.7271,0.7271,-0.0530,0.0530,-0.7271,-0.7271,0.0530,-0.0530,0.7271,0.0*
%
%ADD35ROTATEDRECTD35*%

%ADD36R,2.5532X2.5532*%
%ADD37R,2.5532X2.5532*%
%ADD38R,1.8032X1.4532*%
%ADD39R,1.1032X1.6032*%
%ADD40R,1.2032X0.8032*%
%ADD41R,0.9032X1.1032*%
G04:AMPARAMS|DCode=42|XSize=2.0032mm|YSize=3.4032mm|CornerRadius=0mm|HoleSize=0mm|Usage=FLASHONLY|Rotation=180.000|XOffset=0mm|YOffset=0mm|HoleType=Round|Shape=Octagon|*
%AMOCTAGOND42*
4,1,8,0.5008,-1.7016,-0.5008,-1.7016,-1.0016,-1.2008,-1.0016,1.2008,-0.5008,1.7016,0.5008,1.7016,1.0016,1.2008,1.0016,-1.2008,0.5008,-1.7016,0.0*
%
%ADD42OCTAGOND42*%

%ADD43R,0.8032X2.2032*%
%ADD44R,0.8032X1.6032*%
G04:AMPARAMS|DCode=45|XSize=1.7032mm|YSize=10.2032mm|CornerRadius=0.4766mm|HoleSize=0mm|Usage=FLASHONLY|Rotation=135.000|XOffset=0mm|YOffset=0mm|HoleType=Round|Shape=RoundedRectangle|*
%AMROUNDEDRECTD45*
21,1,1.7032,9.2500,0,0,135.0*
21,1,0.7500,10.2032,0,0,135.0*
1,1,0.9532,3.0052,3.5355*
1,1,0.9532,3.5355,3.0052*
1,1,0.9532,-3.0052,-3.5355*
1,1,0.9532,-3.5355,-3.0052*
%
%ADD45ROUNDEDRECTD45*%
G04:AMPARAMS|DCode=46|XSize=1.7032mm|YSize=3.4032mm|CornerRadius=0mm|HoleSize=0mm|Usage=FLASHONLY|Rotation=45.000|XOffset=0mm|YOffset=0mm|HoleType=Round|Shape=Rectangle|*
%AMROTATEDRECTD46*
4,1,4,0.6010,-1.8054,-1.8054,0.6010,-0.6010,1.8054,1.8054,-0.6010,0.6010,-1.8054,0.0*
%
%ADD46ROTATEDRECTD46*%

G04:AMPARAMS|DCode=47|XSize=1.5532mm|YSize=1.0532mm|CornerRadius=0mm|HoleSize=0mm|Usage=FLASHONLY|Rotation=45.000|XOffset=0mm|YOffset=0mm|HoleType=Round|Shape=Rectangle|*
%AMROTATEDRECTD47*
4,1,4,-0.1768,-0.9215,-0.9215,-0.1768,0.1768,0.9215,0.9215,0.1768,-0.1768,-0.9215,0.0*
%
%ADD47ROTATEDRECTD47*%

%ADD48O,0.8032X2.0032*%
%ADD49R,0.8032X1.2032*%
%ADD50C,1.5032*%
%ADD51C,1.4032*%
%ADD52C,2.2032*%
%ADD53C,2.0032*%
%ADD54C,1.7032*%
G36*
X828222Y677135D02*
X908222Y597135D01*
X928222D01*
X1013222Y682135D01*
X913222Y777135D01*
X828222Y692135D01*
Y677135D01*
D02*
G37*
D22*
X527575Y545951D02*
D03*
X549575D02*
D03*
X94133Y547206D02*
D03*
X72133D02*
D03*
X269424Y729261D02*
D03*
X291424D02*
D03*
X268922Y707703D02*
D03*
X290921D02*
D03*
X171721Y77094D02*
D03*
X149721D02*
D03*
X568197Y518024D02*
D03*
X590197D02*
D03*
X293936Y226099D02*
D03*
X271936D02*
D03*
X567149Y483037D02*
D03*
X589149D02*
D03*
X543203Y587963D02*
D03*
X521203D02*
D03*
X579802Y675210D02*
D03*
X601802D02*
D03*
X539758Y675574D02*
D03*
X517758D02*
D03*
X171023Y110302D02*
D03*
X149023D02*
D03*
X256656Y113442D02*
D03*
X278657D02*
D03*
D23*
X124121Y82666D02*
D03*
D24*
X27121Y54666D02*
D03*
X56121Y109666D02*
D03*
D25*
X217405Y672636D02*
D03*
Y650636D02*
D03*
X49305Y589305D02*
D03*
X49305Y567305D02*
D03*
X495614Y612503D02*
D03*
Y634503D02*
D03*
X547272Y208263D02*
D03*
Y186263D02*
D03*
X424740Y206620D02*
D03*
Y184620D02*
D03*
X945682Y287996D02*
D03*
X945682Y265997D02*
D03*
X632257Y739490D02*
D03*
Y717490D02*
D03*
X560436Y697574D02*
D03*
Y675574D02*
D03*
X770809Y240220D02*
D03*
Y218220D02*
D03*
X946000Y241000D02*
D03*
Y219000D02*
D03*
X770368Y266263D02*
D03*
X770368Y288263D02*
D03*
X902680Y240812D02*
D03*
Y218812D02*
D03*
X811000Y240000D02*
D03*
Y218000D02*
D03*
X448992Y207034D02*
D03*
Y185035D02*
D03*
X592223Y99470D02*
D03*
Y121470D02*
D03*
X449753Y234593D02*
D03*
Y256593D02*
D03*
D26*
X47985Y617153D02*
D03*
X271382Y622654D02*
D03*
X168868Y265595D02*
D03*
D27*
X47985Y668403D02*
D03*
X271382Y673904D02*
D03*
X168868Y316845D02*
D03*
D28*
X93708Y625406D02*
D03*
Y604405D02*
D03*
X150543Y618621D02*
D03*
Y639621D02*
D03*
X616504Y120948D02*
D03*
Y99947D02*
D03*
X569632Y120638D02*
D03*
X569632Y99637D02*
D03*
X650287Y249565D02*
D03*
X650287Y228565D02*
D03*
X613297Y146122D02*
D03*
Y167122D02*
D03*
X632257Y681448D02*
D03*
Y702448D02*
D03*
X193411Y32771D02*
D03*
Y53771D02*
D03*
X649746Y139734D02*
D03*
X649746Y118734D02*
D03*
D29*
X217255Y623590D02*
D03*
X217508Y575941D02*
D03*
X134552Y533403D02*
D03*
D30*
X198122Y533124D02*
D03*
D31*
X266620Y556222D02*
D03*
D32*
X174187Y564063D02*
D03*
X174187Y576763D02*
D03*
X116687Y564063D02*
D03*
X116687Y576763D02*
D03*
X174187Y589463D02*
D03*
Y602164D02*
D03*
X116687Y589463D02*
D03*
X116687Y602163D02*
D03*
D33*
X893750Y170000D02*
D03*
X816250D02*
D03*
D34*
X945000D02*
D03*
X765000D02*
D03*
D35*
X804077Y581943D02*
D03*
X826351Y559669D02*
D03*
D36*
X292495Y142746D02*
D03*
Y194746D02*
D03*
D37*
X199090Y85919D02*
D03*
X251090D02*
D03*
D38*
X185345Y187976D02*
D03*
Y220476D02*
D03*
X185313Y136441D02*
D03*
Y168941D02*
D03*
D39*
X500119Y190697D02*
D03*
X521119D02*
D03*
X476550Y518172D02*
D03*
X497550D02*
D03*
X602114Y550351D02*
D03*
X623114D02*
D03*
X548920Y518141D02*
D03*
X527920D02*
D03*
X445005Y163539D02*
D03*
X424005Y163539D02*
D03*
D40*
X209536Y134099D02*
D03*
X233536Y143599D02*
D03*
Y124599D02*
D03*
X915000Y110000D02*
D03*
X891000Y100500D02*
D03*
Y119500D02*
D03*
X785000Y110000D02*
D03*
X809000Y119500D02*
D03*
Y100500D02*
D03*
D41*
X576232Y164374D02*
D03*
X569732Y145374D02*
D03*
X582732D02*
D03*
D42*
X239475Y275502D02*
D03*
X240090Y196705D02*
D03*
D43*
X239475Y250502D02*
D03*
X240090Y171705D02*
D03*
D44*
X254475Y247502D02*
D03*
X224475D02*
D03*
X255090Y168705D02*
D03*
X225090D02*
D03*
D45*
X897923Y683460D02*
D03*
X913221Y667135D02*
D03*
X940371Y653484D02*
D03*
X883221Y707135D02*
D03*
D46*
X810222Y636087D02*
D03*
X780523Y606388D02*
D03*
D47*
X846518Y599790D02*
D03*
X830962Y615347D02*
D03*
X863958Y584450D02*
D03*
X879514Y568894D02*
D03*
X850444Y634913D02*
D03*
X866000Y619357D02*
D03*
D48*
X602066Y627857D02*
D03*
X589366D02*
D03*
X576666D02*
D03*
X563966D02*
D03*
X602066Y570357D02*
D03*
X589366D02*
D03*
X576666D02*
D03*
X563966D02*
D03*
D49*
X466866Y163533D02*
D03*
X485866D02*
D03*
X476366Y187534D02*
D03*
D50*
X856000Y387100D02*
D03*
Y412500D02*
D03*
X771000Y387100D02*
D03*
Y412500D02*
D03*
X687600Y650000D02*
D03*
X713000D02*
D03*
X712922Y470077D02*
D03*
X687522D02*
D03*
X337350Y300000D02*
D03*
X362750D02*
D03*
X362650Y150000D02*
D03*
X337250D02*
D03*
X687600Y300000D02*
D03*
X713000D02*
D03*
X687600Y150000D02*
D03*
X713000D02*
D03*
X362650Y470000D02*
D03*
X337250D02*
D03*
X362650Y695000D02*
D03*
X337250D02*
D03*
D51*
X93121Y82666D02*
D03*
X23121D02*
D03*
D52*
X320408Y576184D02*
D03*
X966431Y496098D02*
D03*
X663126Y711040D02*
D03*
X626417Y422952D02*
D03*
X638219Y632952D02*
D03*
X402185Y579009D02*
D03*
X455454Y632783D02*
D03*
X454676Y684042D02*
D03*
X649746Y71876D02*
D03*
X243703Y431374D02*
D03*
X627431Y481873D02*
D03*
X431267Y517146D02*
D03*
X502644Y226795D02*
D03*
X447016Y135535D02*
D03*
X737131Y726879D02*
D03*
X609224Y358714D02*
D03*
X569224Y208714D02*
D03*
D53*
X650287Y167122D02*
D03*
Y205122D02*
D03*
D54*
X431408Y65383D02*
D03*
X413200Y83591D02*
D03*
X98000Y260000D02*
D03*
X325181Y224941D02*
D03*
M02*
